<svg width="18" height="20" viewBox="0 0 18 20" fill="none" xmlns="http://www.w3.org/2000/svg">
<path d="M16.7143 4.96494H14.3747L14.768 2.6704C14.8848 1.98915 14.4114 1.3454 13.7113 1.23173C13.007 1.11943 12.3484 1.57904 12.2315 2.25908L11.7683 4.96494H7.94732L8.34063 2.6704C8.45739 1.98915 7.98404 1.3454 7.28393 1.23173C6.5796 1.11943 5.92108 1.57904 5.80416 2.25908L5.33973 4.96494H2.57143C1.86147 4.96494 1.28571 5.5247 1.28571 6.21494C1.28571 6.9415 1.86147 7.46494 2.57143 7.46494H4.91103L4.05402 12.4649H1.28571C0.575759 12.4649 0 13.0247 0 13.7149C0 14.4052 0.575759 14.9298 1.28571 14.9298H3.62531L3.232 17.2243C3.11525 17.9056 3.58859 18.5493 4.2887 18.663C4.35937 18.7462 4.4317 18.7501 4.5 18.7501C5.11714 18.7501 5.66196 18.3169 5.76683 17.706L6.23049 15.0001H10.0523L9.65897 17.2946C9.54221 17.9759 10.0156 18.6196 10.7157 18.7333C10.7879 18.7462 10.8603 18.7501 10.9286 18.7501C11.5457 18.7501 12.0905 18.3169 12.1954 17.706L12.6591 15.0001H15.4286C16.1385 15.0001 16.7143 14.4403 16.7143 13.7852C16.7143 13.095 16.1385 12.5352 15.4286 12.5352H13.089L13.946 7.53525H16.7143C17.4242 7.53525 18 6.97587 18 6.3204C18 5.55869 17.4254 4.96494 16.7143 4.96494ZM10.4826 12.4649H6.66161L7.51741 7.46494H11.3392L10.4826 12.4649Z" fill="white"/>
</svg>
