<svg width="19" height="19" viewBox="0 0 19 19" fill="none" xmlns="http://www.w3.org/2000/svg">
<path d="M7.605 0.189382C3.89879 0.918633 0.914399 3.91764 0.188626 7.63713C-0.90757 13.2458 2.91127 18.2336 8.08488 18.9859C8.83881 19.1009 9.51937 18.4979 9.51937 17.7324L9.51938 17.706C9.51938 17.0794 9.06567 16.5564 8.45491 16.4625C5.10961 15.9458 2.53768 13.0339 2.53768 9.5282C2.53768 5.43214 6.05192 2.14414 10.2079 2.54619C13.8383 2.89923 16.4979 6.17851 16.4979 9.83869V10.482C16.4979 11.3613 15.7864 12.0762 14.9115 12.0762C14.0366 12.0762 13.3247 11.3613 13.3247 10.482V5.70123C13.3247 5.34906 13.0407 5.06353 12.6898 5.06353L11.4215 5.06368C11.132 5.06368 10.8979 5.26239 10.8218 5.52861C9.83626 5.04497 8.67066 4.87659 7.40868 5.32536C5.87187 5.8719 4.70706 7.27229 4.48497 8.8936C4.10888 11.6406 6.22246 13.9888 8.88323 13.9888C9.93184 13.9888 10.8833 13.6089 11.6432 12.9984C12.595 14.2444 14.2302 14.9366 15.9819 14.4908C17.8134 14.0646 19.0349 12.2654 18.9992 10.3985V9.56654C18.9992 3.62745 13.6888 -1.00727 7.605 0.189382ZM8.84635 11.4772C7.79655 11.4772 6.94268 10.619 6.94268 9.56455C6.94268 8.51008 7.79655 7.65186 8.84635 7.65186C9.89614 7.65186 10.75 8.51008 10.75 9.56455C10.75 10.619 9.93302 11.4772 8.84635 11.4772Z" fill="white"/>
</svg>
